<svg xmlns="http://www.w3.org/2000/svg" width="500" height="500" aria-hidden="true" focusable="false" data-prefix="fas" data-icon="shopping-bag" className="svg-inline--fa fa-shopping-bag fa-w-14" role="img" viewBox="0 0 448 512"><path d="M352 160v-32C352 57.4 294.6 0 224 0 153.4 0 96 57.4 96 128v32H0v272c0 44.2 35.8 80 80 80h288c44.2 0 80-35.8 80-80V160h-96zm-192-32c0-35.3 28.7-64 64-64s64 28.7 64 64v32H160v-32zm160 120c-13.3 0-24-10.7-24-24s10.7-24 24-24 24 10.7 24 24-10.7 24-24 24zm-192 0c-13.3 0-24-10.7-24-24s10.7-24 24-24 24 10.7 24 24-10.7 24-24 24z" fill="currentColor"/></svg>